<?xml version="1.0" standalone="no"?>
<!DOCTYPE svg PUBLIC "-//W3C//DTD SVG 1.1//EN" "http://www.w3.org/Graphics/SVG/1.1/DTD/svg11.dtd" >
<svg xmlns="http://www.w3.org/2000/svg">
<metadata>Generated by IcoMoon</metadata>
<defs>
<font id="icomoon" horiz-adv-x="1024">
<font-face units-per-em="1024" ascent="960" descent="-64" />
<missing-glyph horiz-adv-x="1024" />
<glyph unicode="&#x20;" horiz-adv-x="512" d="" />
<glyph unicode="&#xe900;" glyph-name="clock" d="M512 960c-99.84 0-199.68-30.72-284.16-87.040s-148.48-135.68-186.88-227.84c-38.4-92.16-48.64-194.56-28.16-294.4s69.12-189.44 138.24-261.12c71.68-71.68 161.28-120.32 261.12-138.24 99.84-20.48 202.24-10.24 294.4 28.16s171.52 104.96 227.84 186.88c56.32 84.48 87.040 181.76 87.040 284.16 0 66.56-12.8 133.12-38.4 194.56s-64 117.76-110.080 166.4c-46.080 46.080-102.4 84.48-166.4 110.080-61.44 25.6-128 38.4-194.56 38.4zM512 43.52c-79.36 0-158.72 23.040-225.28 69.12-66.56 43.52-120.32 107.52-151.040 181.76s-38.4 156.16-23.040 235.52 53.76 151.040 112.64 209.92 130.56 94.72 209.92 112.64 161.28 7.68 235.52-23.040c74.24-30.72 138.24-81.92 181.76-151.040 43.52-66.56 69.12-145.92 69.12-225.28 0-107.52-43.52-212.48-120.32-289.28s-181.76-120.32-289.28-120.32zM512 755.2c-12.8 0-25.6-5.12-35.84-15.36-10.24-7.68-15.36-20.48-15.36-35.84v-225.28l-107.52-61.44c-10.24-5.12-17.92-15.36-23.040-25.6s-5.12-23.040-2.56-33.28c2.56-10.24 10.24-20.48 17.92-28.16 10.24-7.68 20.48-10.24 30.72-10.24 7.68 0 17.92 2.56 25.6 7.68l133.12 76.8 12.8 12.8c2.56 2.56 2.56 5.12 5.12 7.68s2.56 5.12 5.12 7.68c2.56 2.56 2.56 7.68 2.56 10.24v261.12c0 12.8-5.12 25.6-15.36 35.84-7.68 10.24-20.48 15.36-33.28 15.36z" />
<glyph unicode="&#xe901;" glyph-name="desc" d="M51.2 806.4h921.6c12.8 0 25.6 5.12 35.84 15.36 10.24 7.68 15.36 20.48 15.36 35.84 0 12.8-5.12 25.6-15.36 35.84s-23.040 15.36-35.84 15.36h-921.6c-12.8 0-25.6-5.12-35.84-15.36s-15.36-23.040-15.36-35.84c0-12.8 5.12-25.6 15.36-35.84s23.040-15.36 35.84-15.36zM972.8 89.6h-512c-12.8 0-25.6-5.12-35.84-15.36-10.24-7.68-15.36-20.48-15.36-35.84s5.12-25.6 15.36-35.84c10.24-10.24 23.040-15.36 35.84-15.36h512c12.8 0 25.6 5.12 35.84 15.36s15.36 23.040 15.36 35.84-5.12 25.6-15.36 35.84c-10.24 10.24-23.040 15.36-35.84 15.36zM972.8 499.2h-921.6c-12.8 0-25.6-5.12-35.84-15.36s-15.36-23.040-15.36-35.84 5.12-25.6 15.36-35.84c10.24-10.24 23.040-15.36 35.84-15.36h921.6c12.8 0 25.6 5.12 35.84 15.36s15.36 23.040 15.36 35.84-5.12 25.6-15.36 35.84c-10.24 10.24-23.040 15.36-35.84 15.36zM972.8 294.4h-921.6c-12.8 0-25.6-5.12-35.84-15.36-10.24-7.68-15.36-23.040-15.36-35.84s5.12-25.6 15.36-35.84c10.24-10.24 23.040-15.36 35.84-15.36h921.6c12.8 0 25.6 5.12 35.84 15.36s15.36 23.040 15.36 35.84-5.12 25.6-15.36 35.84c-10.24 10.24-23.040 15.36-35.84 15.36zM972.8 704h-921.6c-12.8 0-25.6-5.12-35.84-15.36s-15.36-23.040-15.36-35.84c0-12.8 5.12-25.6 15.36-35.84s23.040-15.36 35.84-15.36h921.6c12.8 0 25.6 5.12 35.84 15.36s15.36 23.040 15.36 35.84c0 12.8-5.12 25.6-15.36 35.84s-23.040 15.36-35.84 15.36z" />
<glyph unicode="&#xe902;" glyph-name="logout" d="M358.4 38.4h-204.8c-12.8 0-25.6 5.12-35.84 15.36s-15.36 23.040-15.36 35.84v716.8c0 12.8 5.12 25.6 15.36 35.84s23.040 15.36 35.84 15.36h204.8c28.16 0 51.2 23.040 51.2 51.2s-23.040 51.2-51.2 51.2h-204.8c-40.96 0-79.36-15.36-107.52-46.080-30.72-28.16-46.080-66.56-46.080-107.52v-716.8c0-40.96 15.36-79.36 46.080-107.52 28.16-30.72 66.56-46.080 107.52-46.080h204.8c28.16 0 51.2 23.040 51.2 51.2s-23.040 51.2-51.2 51.2zM1018.88 468.48c-2.56 5.12-5.12 12.8-10.24 17.92l-256 256c-20.48 20.48-51.2 20.48-71.68 0s-20.48-51.2 0-71.68l168.96-168.96h-491.52c-28.16 0-51.2-23.040-51.2-51.2s23.040-51.2 51.2-51.2h491.52l-168.96-168.96c-20.48-20.48-20.48-51.2 0-71.68 10.24-12.8 23.040-17.92 35.84-17.92s25.6 5.12 35.84 15.36l256 256c5.12 5.12 7.68 10.24 10.24 17.92 5.12 10.24 5.12 25.6 0 38.4z" />
<glyph unicode="&#xe903;" glyph-name="pin" d="M512 960c-107.52 0-209.92-43.52-284.16-120.32s-117.76-181.76-117.76-289.28c0-276.48 353.28-588.8 368.64-601.6 10.24-7.68 20.48-12.8 33.28-12.8s23.040 5.12 33.28 12.8c17.92 12.8 368.64 325.12 368.64 601.6 0 107.52-43.52 212.48-117.76 289.28s-176.64 120.32-284.16 120.32zM512 56.32c-107.52 102.4-302.080 322.56-302.080 494.080 0 81.92 30.72 158.72 89.6 217.6s133.12 89.6 212.48 89.6c79.36 0 156.16-33.28 212.48-89.6 56.32-58.88 89.6-135.68 89.6-217.6 0-171.52-194.56-391.68-302.080-494.080zM512 755.2c-40.96 0-79.36-12.8-112.64-33.28-33.28-23.040-58.88-53.76-74.24-92.16s-20.48-79.36-10.24-117.76c7.68-40.96 28.16-76.8 56.32-104.96s64-48.64 102.4-56.32c38.4-7.68 79.36-5.12 115.2 12.8 35.84 15.36 69.12 40.96 89.6 74.24 23.040 33.28 33.28 74.24 33.28 112.64 0 53.76-20.48 107.52-58.88 145.92-35.84 38.4-87.040 58.88-140.8 58.88zM512 448c-20.48 0-38.4 5.12-56.32 17.92-15.36 10.24-28.16 28.16-35.84 46.080s-10.24 38.4-5.12 58.88c5.12 20.48 12.8 38.4 28.16 51.2 12.8 15.36 30.72 23.040 51.2 28.16s40.96 2.56 58.88-5.12c17.92-7.68 33.28-20.48 46.080-38.4 10.24-17.92 17.92-35.84 17.92-56.32 0-28.16-10.24-53.76-30.72-71.68-23.040-20.48-48.64-30.72-74.24-30.72z" />
<glyph unicode="&#xe904;" glyph-name="summary" d="M768 601.6h-509.44c-12.8 0-25.6-5.12-35.84-15.36s-15.36-23.040-15.36-35.84c0-12.8 5.12-25.6 15.36-35.84 7.68-10.24 20.48-15.36 35.84-15.36h509.44c12.8 0 25.6 5.12 35.84 15.36s15.36 23.040 15.36 35.84c0 12.8-5.12 25.6-15.36 35.84s-23.040 15.36-35.84 15.36zM563.2 396.8h-307.2c-12.8 0-25.6-5.12-35.84-15.36s-15.36-23.040-15.36-35.84c0-12.8 5.12-25.6 15.36-35.84s23.040-15.36 38.4-15.36h307.2c12.8 0 25.6 5.12 35.84 15.36 7.68 10.24 12.8 23.040 12.8 35.84s-5.12 25.6-15.36 35.84c-7.68 10.24-20.48 15.36-35.84 15.36zM512 957.44c-66.56 0-133.12-12.8-194.56-38.4s-117.76-64-166.4-110.080c-94.72-94.72-148.48-225.28-148.48-360.96 0-117.76 40.96-232.96 115.2-322.56l-102.4-102.4c-7.68-7.68-12.8-15.36-12.8-25.6-2.56-10.24 0-20.48 2.56-28.16 5.12-10.24 10.24-17.92 20.48-23.040 7.68-5.12 17.92-7.68 28.16-7.68h458.24c135.68 0 266.24 53.76 360.96 148.48 97.28 97.28 151.040 225.28 151.040 360.96s-53.76 266.24-148.48 360.96c-97.28 94.72-227.84 148.48-363.52 148.48zM512 40.96h-335.36l48.64 48.64c10.24 10.24 15.36 23.040 15.36 35.84s-5.12 25.6-15.36 35.84c-66.56 66.56-107.52 153.6-117.76 248.32s15.36 189.44 66.56 266.24c51.2 79.36 130.56 135.68 220.16 163.84s186.88 23.040 273.92-12.8 158.72-102.4 204.8-184.32c43.52-84.48 58.88-179.2 40.96-271.36s-69.12-176.64-140.8-235.52c-74.24-64-166.4-94.72-261.12-94.72z" />
<glyph unicode="&#xe905;" glyph-name="task" d="M563.2 345.6h-202.24c-12.8 0-25.6-5.12-35.84-15.36s-15.36-23.040-15.36-35.84c0-12.8 5.12-25.6 15.36-35.84s23.040-15.36 35.84-15.36h202.24c12.8 0 25.6 5.12 35.84 15.36s15.36 23.040 15.36 35.84c0 12.8-5.12 25.6-15.36 35.84s-23.040 15.36-35.84 15.36zM762.88 857.6h-58.88c-10.24 30.72-30.72 56.32-53.76 74.24-25.6 17.92-56.32 28.16-87.040 28.16h-102.4c-30.72 0-61.44-10.24-87.040-28.16s-43.52-43.52-53.76-74.24h-58.88c-40.96 0-79.36-15.36-107.52-46.080-28.16-28.16-43.52-66.56-43.52-107.52v-614.4c0-40.96 15.36-79.36 43.52-107.52s66.56-46.080 107.52-46.080h501.76c40.96 0 79.36 15.36 107.52 46.080 28.16 28.16 43.52 66.56 43.52 107.52v614.4c0 40.96-15.36 79.36-43.52 107.52s-66.56 46.080-107.52 46.080zM412.16 806.4c0 12.8 5.12 25.6 15.36 35.84 7.68 10.24 20.48 15.36 33.28 15.36h102.4c12.8 0 25.6-5.12 35.84-15.36 7.68-10.24 12.8-23.040 12.8-35.84v-51.2h-202.24v51.2zM814.080 89.6c0-12.8-5.12-25.6-15.36-35.84s-23.040-15.36-35.84-15.36h-501.76c-12.8 0-25.6 5.12-35.84 15.36s-15.36 23.040-15.36 35.84v614.4c0 12.8 5.12 25.6 15.36 35.84s23.040 15.36 35.84 15.36h51.2v-51.2c0-12.8 5.12-25.6 15.36-35.84s23.040-15.36 35.84-15.36h302.080c12.8 0 25.6 5.12 35.84 15.36s15.36 23.040 15.36 35.84v51.2h51.2c12.8 0 25.6-5.12 35.84-15.36s15.36-23.040 15.36-35.84v-614.4zM663.040 550.4h-302.080c-12.8 0-25.6-5.12-35.84-15.36s-15.36-23.040-15.36-35.84 5.12-25.6 15.36-35.84c10.24-10.24 23.040-15.36 35.84-15.36h302.080c12.8 0 25.6 5.12 35.84 15.36s15.36 23.040 15.36 35.84-5.12 25.6-15.36 35.84c-10.24 10.24-23.040 15.36-35.84 15.36z" />
<glyph unicode="&#xe906;" glyph-name="arrow-left" d="M939.52 532.48h-647.68l281.6 281.6c15.36 15.36 25.6 38.4 25.6 61.44s-10.24 43.52-25.6 61.44c-15.36 15.36-38.4 25.6-61.44 25.6s-43.52-10.24-61.44-25.6l-424.96-427.52c-7.68-7.68-12.8-17.92-17.92-28.16-7.68-20.48-7.68-43.52 0-64 5.12-12.8 10.24-20.48 17.92-30.72l427.52-424.96c7.68-7.68 17.92-15.36 28.16-17.92 10.24-5.12 20.48-7.68 33.28-7.68 10.24 0 23.040 2.56 33.28 7.68s20.48 10.24 28.16 17.92c7.68 7.68 15.36 17.92 17.92 28.16 5.12 10.24 7.68 20.48 7.68 33.28 0 10.24-2.56 23.040-7.68 33.28s-10.24 20.48-17.92 28.16l-281.6 281.6h647.68c23.040 0 43.52 10.24 61.44 25.6 15.36 15.36 25.6 38.4 25.6 61.44s-10.24 43.52-25.6 61.44c-20.48 10.24-40.96 17.92-64 17.92z" />
<glyph unicode="&#xe907;" glyph-name="chev-left" d="M396.8 448l386.56 386.56c28.16 28.16 28.16 74.24 0 102.4s-74.24 28.16-102.4 0l-450.56-448c-10.24-10.24-17.92-23.040-17.92-40.96 0-12.8 5.12-25.6 12.8-35.84v0l2.56-2.56c0 0 2.56-2.56 2.56-2.56l450.56-450.56c15.36-15.36 33.28-20.48 51.2-20.48s38.4 7.68 51.2 20.48c28.16 28.16 28.16 74.24 0 102.4l-386.56 389.12z" />
<glyph unicode="&#xe908;" glyph-name="chev-right" d="M619.52 448l-386.56 386.56c-28.16 28.16-28.16 74.24 0 104.96 28.16 28.16 74.24 28.16 102.4 0l450.56-450.56c10.24-10.24 17.92-23.040 17.92-40.96 0-12.8-5.12-25.6-12.8-35.84v0l-2.56-2.56c0 0-2.56-2.56-2.56-2.56l-448-450.56c-15.36-15.36-33.28-20.48-51.2-20.48s-38.4 7.68-51.2 20.48c-28.16 28.16-28.16 74.24 0 102.4l384 389.12z" />
<glyph unicode="&#xe909;" glyph-name="pencil" d="M864 960c88.364 0 160-71.634 160-160 0-36.020-11.91-69.258-32-96l-64-64-224 224 64 64c26.742 20.090 59.978 32 96 32zM64 224l-64-288 288 64 592 592-224 224-592-592zM715.578 596.422l-448-448-55.156 55.156 448 448 55.156-55.156z" />
<glyph unicode="&#xe90a;" glyph-name="cross" d="M939.52 532.48h-343.040v343.040c0 46.080-38.4 84.48-84.48 84.48s-84.48-38.4-84.48-84.48v-340.48h-343.040c-46.080-2.56-84.48-40.96-84.48-87.040s38.4-84.48 84.48-84.48h340.48v-340.48c0-46.080 38.4-84.48 84.48-84.48s84.48 38.4 84.48 84.48v340.48h340.48c46.080 0 84.48 38.4 84.48 84.48s-33.28 84.48-79.36 84.48z" />
<glyph unicode="&#xe90c;" glyph-name="ellipsis" d="M512 704c71.68 0 128 56.32 128 128s-56.32 128-128 128-128-56.32-128-128 56.32-128 128-128zM512 576c-71.68 0-128-56.32-128-128s56.32-128 128-128 128 56.32 128 128-56.32 128-128 128zM512 192c-71.68 0-128-56.32-128-128s56.32-128 128-128 128 56.32 128 128-56.32 128-128 128z" />
<glyph unicode="&#xe90d;" glyph-name="filter" d="M975.36 957.44h-926.72c-43.52 0-64-51.2-33.28-81.92l368.64-368.64v-409.6c0-15.36 7.68-30.72 20.48-38.4l158.72-112.64c30.72-23.040 74.24 0 74.24 38.4v522.24l371.2 368.64c28.16 30.72 7.68 81.92-33.28 81.92z" />
<glyph unicode="&#xe90f;" glyph-name="overview" d="M993.28 389.12h-448l299.52-299.52c10.24-10.24 30.72-12.8 40.96-2.56 74.24 69.12 122.88 161.28 138.24 266.24 2.56 17.92-12.8 35.84-30.72 35.84zM962.56 509.44c-15.36 225.28-194.56 407.040-419.84 422.4-17.92 0-30.72-12.8-30.72-30.72v-422.4h422.4c15.36 0 30.72 15.36 28.16 30.72zM419.84 389.12v445.44c0 17.92-15.36 33.28-33.28 30.72-225.28-30.72-396.8-227.84-389.12-463.36 10.24-240.64 217.6-440.32 458.24-435.2 94.72 0 181.76 30.72 256 81.92 15.36 10.24 15.36 33.28 2.56 46.080l-294.4 294.4z" />
<glyph unicode="&#xe911;" glyph-name="sort" d="M10.24 719.36l158.72 156.16c12.8 12.8 33.28 12.8 46.080 0l158.72-156.16c20.48-20.48 5.12-53.76-23.040-53.76h-94.72v-624.64c0-17.92-15.36-30.72-30.72-30.72h-66.56c-17.92 0-30.72 12.8-30.72 30.72v624.64h-97.28c-28.16 0-40.96 33.28-20.48 53.76zM478.72 757.76h509.44c17.92 0 30.72 12.8 30.72 30.72v64c0 17.92-15.36 30.72-30.72 30.72h-509.44c-17.92 0-30.72-12.8-30.72-30.72v-61.44c-2.56-17.92 12.8-33.28 30.72-33.28zM445.44 540.16v61.44c0 17.92 15.36 30.72 30.72 30.72h381.44c17.92 0 30.72-12.8 30.72-30.72v-61.44c0-17.92-15.36-30.72-30.72-30.72h-378.88c-17.92 0-33.28 12.8-33.28 30.72zM445.44 40.96v61.44c0 17.92 15.36 30.72 30.72 30.72h128c17.92 0 30.72-12.8 30.72-30.72v-61.44c0-17.92-15.36-30.72-30.72-30.72h-128c-15.36 0-30.72 12.8-30.72 30.72zM445.44 289.28v61.44c0 17.92 15.36 30.72 30.72 30.72h256c17.92 0 30.72-12.8 30.72-30.72v-61.44c0-17.92-15.36-30.72-30.72-30.72h-256c-15.36 0-30.72 15.36-30.72 30.72z" />
<glyph unicode="&#xe914;" glyph-name="user" d="M227.84 619.52h568.32v-340.48h-568.32v340.48zM939.52 448c0-46.080 38.4-84.48 84.48-84.48v-171.52c0-46.080-38.4-84.48-84.48-84.48h-855.040c-46.080 0-84.48 38.4-84.48 84.48v171.52c46.080 0 84.48 38.4 84.48 84.48s-38.4 84.48-84.48 84.48v171.52c0 46.080 38.4 84.48 84.48 84.48h852.48c46.080 0 84.48-38.4 84.48-84.48v-171.52c-43.52 0-81.92-38.4-81.92-84.48zM852.48 632.32c0 23.040-17.92 43.52-43.52 43.52h-596.48c-23.040 0-43.52-17.92-43.52-43.52v-368.64c0-23.040 17.92-43.52 43.52-43.52h596.48c23.040 0 43.52 17.92 43.52 43.52v368.64z" />
<glyph unicode="&#xe945;" glyph-name="envelop" d="M928 832h-832c-52.8 0-96-43.2-96-96v-640c0-52.8 43.2-96 96-96h832c52.8 0 96 43.2 96 96v640c0 52.8-43.2 96-96 96zM398.74 409.628l-270.74-210.892v501.642l270.74-290.75zM176.38 704h671.24l-335.62-252-335.62 252zM409.288 398.302l102.712-110.302 102.71 110.302 210.554-270.302h-626.528l210.552 270.302zM625.26 409.628l270.74 290.75v-501.642l-270.74 210.892z" />
<glyph unicode="&#xe971;" glyph-name="user1" d="M576 253.388v52.78c70.498 39.728 128 138.772 128 237.832 0 159.058 0 288-192 288s-192-128.942-192-288c0-99.060 57.502-198.104 128-237.832v-52.78c-217.102-17.748-384-124.42-384-253.388h896c0 128.968-166.898 235.64-384 253.388z" />
<glyph unicode="&#xe976;" glyph-name="user-tie" d="M320 768c0 106.039 85.961 192 192 192s192-85.961 192-192c0-106.039-85.961-192-192-192s-192 85.961-192 192zM768.078 512h-35.424l-199.104-404.244 74.45 372.244-96 96-96-96 74.45-372.244-199.102 404.244h-35.424c-127.924 0-127.924-85.986-127.924-192v-320h768v320c0 106.014 0 192-127.922 192z" />
<glyph unicode="&#xe98d;" glyph-name="key" d="M704 960c-176.73 0-320-143.268-320-320 0-20.026 1.858-39.616 5.376-58.624l-389.376-389.376v-192c0-35.346 28.654-64 64-64h64v64h128v128h128v128h128l83.042 83.042c34.010-12.316 70.696-19.042 108.958-19.042 176.73 0 320 143.268 320 320s-143.27 320-320 320zM799.874 639.874c-53.020 0-96 42.98-96 96s42.98 96 96 96 96-42.98 96-96-42.98-96-96-96z" />
<glyph unicode="&#xe9ac;" glyph-name="bin" d="M128 640v-640c0-35.2 28.8-64 64-64h576c35.2 0 64 28.8 64 64v640h-704zM320 64h-64v448h64v-448zM448 64h-64v448h64v-448zM576 64h-64v448h64v-448zM704 64h-64v448h64v-448zM848 832h-208v80c0 26.4-21.6 48-48 48h-224c-26.4 0-48-21.6-48-48v-80h-208c-26.4 0-48-21.6-48-48v-80h832v80c0 26.4-21.6 48-48 48zM576 832h-192v63.198h192v-63.198z" />
<glyph unicode="&#xea10;" glyph-name="checkmark" d="M864 832l-480-480-224 224-160-160 384-384 640 640z" />
</font>
</defs>
</svg>
